<mxfile host="app.diagrams.net" modified="2022-02-21T06:33:01.326Z" agent="5.0 (Windows NT 10.0; Win64; x64) AppleWebKit/537.36 (KHTML, like Gecko) Chrome/98.0.4758.102 Safari/537.36" etag="73_yer02wqRJOnEUqwqn" version="16.5.6" type="github">
  <diagram id="EahVIzfTwPBhIapZ82g2" name="第 1 页">
    <mxGraphModel dx="1038" dy="491" grid="1" gridSize="10" guides="1" tooltips="1" connect="1" arrows="1" fold="1" page="1" pageScale="1" pageWidth="827" pageHeight="1169" math="0" shadow="0">
      <root>
        <mxCell id="0" />
        <mxCell id="1" parent="0" />
        <mxCell id="35S5JuyOcc--yWmGO6lD-4" value="" style="edgeStyle=orthogonalEdgeStyle;rounded=0;orthogonalLoop=1;jettySize=auto;html=1;dashed=1;fontSize=20;" edge="1" parent="1" source="35S5JuyOcc--yWmGO6lD-2" target="35S5JuyOcc--yWmGO6lD-3">
          <mxGeometry relative="1" as="geometry" />
        </mxCell>
        <mxCell id="35S5JuyOcc--yWmGO6lD-6" value="" style="edgeStyle=orthogonalEdgeStyle;rounded=0;orthogonalLoop=1;jettySize=auto;html=1;dashed=1;fontSize=20;" edge="1" parent="1" source="35S5JuyOcc--yWmGO6lD-2" target="35S5JuyOcc--yWmGO6lD-5">
          <mxGeometry relative="1" as="geometry" />
        </mxCell>
        <mxCell id="35S5JuyOcc--yWmGO6lD-2" value="Array构造函数" style="rounded=1;whiteSpace=wrap;html=1;fontSize=20;" vertex="1" parent="1">
          <mxGeometry x="10" y="200" width="150" height="60" as="geometry" />
        </mxCell>
        <mxCell id="35S5JuyOcc--yWmGO6lD-3" value="Array.prototype" style="whiteSpace=wrap;html=1;rounded=1;fontSize=20;" vertex="1" parent="1">
          <mxGeometry x="490" y="200" width="170" height="60" as="geometry" />
        </mxCell>
        <mxCell id="35S5JuyOcc--yWmGO6lD-8" value="" style="edgeStyle=orthogonalEdgeStyle;rounded=0;orthogonalLoop=1;jettySize=auto;html=1;dashed=1;fontSize=20;" edge="1" parent="1" source="35S5JuyOcc--yWmGO6lD-5" target="35S5JuyOcc--yWmGO6lD-7">
          <mxGeometry relative="1" as="geometry" />
        </mxCell>
        <mxCell id="35S5JuyOcc--yWmGO6lD-5" value="从上图 list = []" style="whiteSpace=wrap;html=1;rounded=1;fontSize=20;" vertex="1" parent="1">
          <mxGeometry x="10" y="340" width="150" height="60" as="geometry" />
        </mxCell>
        <mxCell id="35S5JuyOcc--yWmGO6lD-10" value="" style="edgeStyle=orthogonalEdgeStyle;rounded=0;orthogonalLoop=1;jettySize=auto;html=1;dashed=1;fontSize=20;" edge="1" parent="1" source="35S5JuyOcc--yWmGO6lD-7" target="35S5JuyOcc--yWmGO6lD-3">
          <mxGeometry relative="1" as="geometry">
            <mxPoint x="410" y="370" as="targetPoint" />
          </mxGeometry>
        </mxCell>
        <mxCell id="35S5JuyOcc--yWmGO6lD-7" value="拦截器" style="whiteSpace=wrap;html=1;rounded=1;fontSize=20;" vertex="1" parent="1">
          <mxGeometry x="310" y="340" width="120" height="60" as="geometry" />
        </mxCell>
        <mxCell id="35S5JuyOcc--yWmGO6lD-13" value="push" style="text;html=1;strokeColor=none;fillColor=none;align=center;verticalAlign=middle;whiteSpace=wrap;rounded=0;dashed=1;fontSize=20;" vertex="1" parent="1">
          <mxGeometry x="210" y="370" width="60" height="30" as="geometry" />
        </mxCell>
      </root>
    </mxGraphModel>
  </diagram>
</mxfile>
